# xmcd
#
# Track frame offsets: 
#        150
#        21695
#        36830
#        60192
#        73000
#        84857
#        99322
#        118150
#        140502
#        153985
#
# Disc length: 2268 seconds
#
# Revision: 4
# Processed by: cddbd v1.5.2PL0 Copyright (c) Steve Scherf et al.
# Submitted via: ExactAudioCopy v0.95b4
#
DISCID=7f08da0a
DTITLE=Whispers - Rock Steady
DYEAR=1992
DGENRE=R&B
TTITLE0=Rock Steady
TTITLE1=Somebody Loves You
TTITLE2=It's A Love Thing
TTITLE3=Seems Like I Gotta Do Wrong
TTITLE4=You're Love Is So Doggone Good
TTITLE5=One For The Money
TTITLE6=Living Together In Sin
TTITLE7=And The Beat Goes On
TTITLE8=I Only Meant To Wet My Feet
TTITLE9=What More Can A Girl Ask For
EXTD=
EXTT0=
EXTT1=
EXTT2=
EXTT3=
EXTT4=
EXTT5=
EXTT6=
EXTT7=
EXTT8=
EXTT9=
PLAYORDER=
